<svg id="a" data-name="icedeer" xmlns="http://www.w3.org/2000/svg" width="175" height="125.54" viewBox="0 0 175 125.54">
  <defs>
    <style>
      .b {
        fill: #333;
      }
    </style>
  </defs>
  <path class="b" d="M49.46,114.13c0,3.88,.12,7.68,.36,11.42H12.26c-.56-3.73-.85-7.54-.85-11.42,0-14.55,4.09-28.14,11.18-39.7,7.85,7.56,17.42,13.73,28.18,18.05-.86,6.9-1.31,14.16-1.31,21.66Z"/>
  <path class="b" d="M163.58,114.13c0,3.88-.29,7.69-.85,11.42h-37.55c.24-3.74,.36-7.54,.36-11.42,0-7.5-.45-14.76-1.31-21.66,10.75-4.31,20.33-10.49,28.18-18.05,7.09,11.56,11.18,25.16,11.18,39.7Z"/>
  <path class="b" d="M114.13,114.13c0,3.88-.11,7.7-.35,11.42H61.22c-.24-3.72-.35-7.53-.35-11.42,0-6.21,.3-12.24,.87-17.98,8.14,2.18,16.79,3.35,25.76,3.35s17.62-1.17,25.76-3.35c.57,5.75,.87,11.77,.87,17.98Z"/>
  <path class="b" d="M173.92,11.42c-.42-2.32-.96-4.6-1.63-6.85-.02-.08-.03-.16-.06-.24-.06-.21-.12-.43-.2-.64-.02-.07-.04-.13-.07-.2-.87-2.05-2.9-3.49-5.27-3.49-3.16,0-5.71,2.56-5.71,5.71,0,.51,.07,1,.19,1.47,.03,.1,.05,.21,.09,.31,.39,1.29,.73,2.6,1.01,3.92,.87,3.88,1.31,7.89,1.31,11.99,0,6.22-1.03,12.23-2.96,17.91-2.34-5.76-6.08-11.82-11.05-17.91-2.21-2.72-4.67-5.44-7.36-8.14-.73-.74-1.46-1.46-2.22-2.19t0,0c-.04-.05-.1-.1-.15-.15,0,0-.02-.02-.03-.03-.09-.09-.18-.17-.29-.26-.93-.76-2.12-1.22-3.42-1.22-2.97,0-5.38,2.41-5.38,5.38,0,1.44,.57,2.74,1.49,3.71,0,0,0,.02,.02,.02,.1,.1,.2,.2,.31,.3,.04,.04,.09,.09,.14,.13,.84,.82,1.66,1.64,2.45,2.46,2.66,2.74,5.03,5.46,7.09,8.14,9.25,11.98,12.31,22.99,6.88,29.81-.15,.18-.3,.36-.45,.53-.96,1.09-1.96,2.16-3,3.2h0c2.13,2.52,4.09,5.17,5.87,7.94,.27,.41,.53,.82,.78,1.24h.25c2.18-2.1,4.21-4.3,6.09-6.6,.18-.2,.36-.41,.52-.62,.03-.04,.06-.08,.09-.11,9.92-12.33,15.74-27.34,15.74-43.53,0-4.08-.37-8.08-1.08-11.99Zm-7.23,0c-.06,0-.13,0-.19,0h.38c-.06,0-.13,0-.19,0Z"/>
  <path class="b" d="M70.29,40c-1.29,1.44-2.55,3.04-3.75,4.78-1.87,2.69-3.62,5.75-5.23,9.11-1.86,3.86-3.55,8.13-5.01,12.74-.79,2.45-1.51,4.99-2.18,7.64-.17,.71-.35,1.43-.52,2.14-.35,1.47-.66,2.97-.97,4.48-2.66-1.16-5.22-2.46-7.69-3.88-1.51-.87-2.99-1.79-4.43-2.75-4.09-2.74-7.82-5.81-11.16-9.18h0c.12-.17,.25-.32,.38-.47,6.04-7.04,13.33-12.96,21.54-17.42,3.61-1.96,7.41-3.64,11.35-5,2.5-.87,5.06-1.6,7.67-2.2Z"/>
  <path class="b" d="M145.66,65.09h0c-3.34,3.38-7.08,6.45-11.16,9.18-1.44,.95-2.92,1.87-4.43,2.75-2.47,1.42-5.03,2.71-7.69,3.88-.31-1.51-.62-3.01-.97-4.48-.17-.72-.34-1.43-.52-2.14-.66-2.64-1.39-5.19-2.18-7.64-1.46-4.62-3.15-8.89-5.01-12.74-1.61-3.36-3.36-6.41-5.23-9.11-1.2-1.75-2.46-3.34-3.75-4.78,2.62,.6,5.17,1.34,7.67,2.2,3.94,1.36,7.73,3.04,11.35,5,8.21,4.45,15.51,10.37,21.54,17.42,.13,.15,.26,.31,.38,.46Z"/>
  <path class="b" d="M38.89,11.42c-1.3,0-2.49,.46-3.42,1.22-.05,.04-.11,.1-.17,.15-.04,.05-.1,.1-.15,.14-.05,.05-.1,.1-.15,.15h0c-.76,.73-1.5,1.45-2.22,2.2-2.69,2.69-5.14,5.41-7.36,8.14-4.97,6.1-8.7,12.16-11.05,17.91-1.92-5.69-2.96-11.7-2.96-17.91,0-4.1,.45-8.11,1.31-11.99,.29-1.32,.62-2.62,1.01-3.92,.03-.1,.06-.21,.09-.31,.12-.47,.19-.96,.19-1.47,0-3.15-2.55-5.71-5.71-5.71C5.95,0,3.92,1.44,3.04,3.49c-.03,.07-.05,.13-.07,.2-.08,.21-.14,.43-.2,.64-.03,.08-.04,.16-.06,.24-.66,2.25-1.21,4.53-1.63,6.85-.72,3.91-1.08,7.92-1.08,11.99,0,16.19,5.82,31.19,15.74,43.53,.03,.03,.06,.08,.09,.11,.17,.21,.34,.42,.52,.62,1.88,2.3,3.91,4.5,6.09,6.6h.25c.24-.42,.51-.83,.78-1.24,1.78-2.77,3.74-5.42,5.87-7.93h0c-1.04-1.05-2.04-2.12-3-3.21-.15-.17-.3-.35-.45-.53-5.42-6.82-2.37-17.84,6.88-29.81,2.06-2.68,4.43-5.4,7.09-8.14,.79-.81,1.61-1.64,2.45-2.46,.04-.04,.1-.09,.15-.13,.02-.02,.04-.03,.06-.06,.08-.07,.17-.15,.24-.24l.02-.02c.92-.97,1.49-2.27,1.49-3.71,0-2.97-2.41-5.38-5.38-5.38Zm-30.58,0c-.06,0-.13,0-.19,0h.38c-.06,0-.13,0-.19,0Z"/>
  <path class="b" d="M111.73,84.74c-7.61,2.17-15.76,3.34-24.23,3.34s-16.62-1.17-24.23-3.34c.63-3.65,1.36-7.14,2.21-10.42,.06-.02,.13-.03,.19-.04h-.18c.99-3.88,2.13-7.48,3.39-10.74,.57-1.48,1.15-2.9,1.78-4.23,1.6-3.49,3.36-6.48,5.24-8.91,3.51-4.53,7.45-7.07,11.61-7.07s8.1,2.54,11.61,7.07c1.88,2.43,3.64,5.42,5.24,8.91,.62,1.34,1.21,2.76,1.78,4.23,1.26,3.26,2.4,6.87,3.39,10.74h-.18c.06,.02,.13,.03,.19,.04,.85,3.28,1.58,6.77,2.21,10.42Z"/>
</svg>