<?xml version="1.0" encoding="UTF-8"?>
<svg id="a" data-name="图层 1" xmlns="http://www.w3.org/2000/svg" width="100" height="100.04" viewBox="0 0 100 100.04">
  <defs>
    <style>
      .b {
            fill: #fff;
      }
    </style>
  </defs>
  <path d="M99.99,50.24c.38,27.11-22.39,50.16-50.21,49.8C21.82,99.67,.08,77.71,0,49.74-.08,22.68,22.62-.16,50.42,0c26.46,.16,50.07,22.06,49.57,50.24Zm-45.01,.01c0-3.35,.24-6.73-.05-10.06-.65-7.5,4.66-10.52,10.91-9.76,3.53,.42,6.58,3.07,7.09,6.18,.54,3.3-1.38,6.22-4.93,7.89-1.4,.66-2.78,1.53-3.89,2.59-1.38,1.31-2.36,3.01-1.28,5,1.05,1.94,2.85,2.71,4.96,2.35,9.4-1.6,17.47-10.72,14.3-21.3-2.5-8.35-11.8-13.9-20.71-12.53-9.63,1.48-16.28,8.78-16.33,17.97-.04,7.17-.31,14.36,.08,21.51,.38,6.95-4.38,10.25-10.59,9.6-3.67-.38-6.87-2.94-7.45-6.14-.57-3.11,1.25-6,4.68-7.78,1.47-.76,2.92-1.65,4.12-2.77,1.4-1.3,2.65-3.26,1.2-4.91-1.12-1.27-3.26-2.42-4.89-2.35-7.73,.3-15.55,9.43-15.07,17.13,.59,9.41,9.1,16.88,19.05,16.73,10.29-.16,18.63-7.95,18.78-17.63,.06-3.91,.01-7.82,.02-11.74Z"/>
  <path class="b" d="M54.98,50.25c0,3.91,.05,7.83-.01,11.74-.15,9.67-8.48,17.47-18.78,17.63-9.95,.15-18.46-7.32-19.05-16.73-.48-7.7,7.35-16.82,15.07-17.13,1.63-.06,3.77,1.08,4.89,2.35,1.45,1.64,.2,3.6-1.2,4.91-1.2,1.11-2.66,2.01-4.12,2.77-3.44,1.78-5.25,4.66-4.68,7.78,.58,3.2,3.78,5.75,7.45,6.14,6.2,.65,10.97-2.65,10.59-9.6-.39-7.15-.12-14.34-.08-21.51,.05-9.19,6.7-16.49,16.33-17.97,8.91-1.37,18.21,4.18,20.71,12.53,3.17,10.58-4.9,19.71-14.3,21.3-2.11,.36-3.91-.41-4.96-2.35-1.08-1.99-.1-3.69,1.28-5,1.12-1.06,2.49-1.93,3.89-2.59,3.56-1.67,5.47-4.58,4.93-7.89-.51-3.11-3.56-5.76-7.09-6.18-6.25-.75-11.57,2.26-10.91,9.76,.29,3.33,.05,6.7,.05,10.06Z"/>
</svg>