<svg id="Layer_1" data-name="Layer 1" xmlns="http://www.w3.org/2000/svg" viewBox="0 0 400 300" data-imageid="content-creation-two-color" imageName="Content creation" class="illustrations_image" style="width: 167px;"><title>_</title><path d="M298.5,56.38c35.23,12.07,68.79,45.16,69.81,87.88s-10.65,86.24-74.84,103.11C233.18,263.22,90,269,51.89,215.85c-36-50.06-24.55-131.33,38.33-157.32C134.29,40.31,229.69,32.83,298.5,56.38Z" fill="#e6e6e6" opacity="0.3"/><path d="M191.45,76.66s-19.24,19.73-30.29,36.47-42.33-24.86-42.33-24.86l-6.16,7.3s25.48,52.53,57.59,39.34S223,83.87,191.45,76.66Z" fill="#68e1fd" class="target-color"/><path d="M191.45,76.66s-19.24,19.73-30.29,36.47-42.33-24.86-42.33-24.86l-6.16,7.3s25.48,52.53,57.59,39.34S223,83.87,191.45,76.66Z" fill="#fff" opacity="0.46"/><path d="M233,75.59s-21.32-14.51-44.47,3.22,6.83,80.31,6.83,80.31l43.32,1.44S291.75,113.32,233,75.59Z" fill="#68e1fd" class="target-color"/><path d="M227.67,90.42s-19.17,8.88-6.88,27.45.09,37.78-26.7,38.55l29.23,7.31,33.21-18.57-3.95-25.09Z" opacity="0.08"/><path d="M205.75,49.66s-.29,6,.87,10a3,3,0,0,0,3.78,2,6.68,6.68,0,0,0,5-5.23l1.6-5.34a5.39,5.39,0,0,0-2.6-5.68C210.93,43.11,205.74,46,205.75,49.66Z" fill="#f4a28c"/><polygon points="216.74 52.08 220.6 71.46 209.76 72.82 211.31 58.17 216.74 52.08" fill="#f4a28c"/><path d="M207.25,49.85a23.42,23.42,0,0,0,5.54-.64,5,5,0,0,0,.21,5.52,4.11,4.11,0,0,0,5,1.44l-.4-7.74a6.13,6.13,0,0,0-3.32-5.35,22.27,22.27,0,0,0-2.63-1.16c-2.27-.81-5.47.8-7.53-.63a1.46,1.46,0,0,0-2.27,1.05c-.25,2.36.31,6,3.54,7.22A5.55,5.55,0,0,0,207.25,49.85Z" fill="#24285b"/><path d="M212.35,54.57s0-2.32,1.71-2.21,1.83,3.47-.53,3.87Z" fill="#f4a28c"/><path d="M205.76,53.47l-1.59,2.38a1,1,0,0,0,.66,1.49l2.32.35Z" fill="#f4a28c"/><path d="M210.84,61.37a7.18,7.18,0,0,0,3.44-2.24s0,3.61-3.84,7.33Z" fill="#ce8172" opacity="0.31"/><path d="M226,99.22c-2-12.34,13.09-20,22-11.19,6.32,6.21,12.12,15.06,12.93,26.94,1.89,27.44-6,51.83-22.34,48.45s-40.7-38-40.7-38l5.34-5.42s23.86,24.61,34.56,21.15C245.39,138.69,229.17,118.55,226,99.22Z" fill="#68e1fd" class="target-color"/><path d="M226,99.22c-2-12.34,13.09-20,22-11.19,6.32,6.21,12.12,15.06,12.93,26.94,1.89,27.44-6,51.83-22.34,48.45s-40.7-38-40.7-38l5.34-5.42s23.86,24.61,34.56,21.15C245.39,138.69,229.17,118.55,226,99.22Z" fill="#fff" opacity="0.46"/><path d="M203.23,120s-3.08-13.36-5.34-13.15,0,8.43,0,8.43-3.53-6.75-5.41-7,2.93,8.81,2.93,8.81-5.87-5.31-7.76-3.71,7.79,7.7,7.79,7.7-1.16,4.4,2.45,4.3Z" fill="#f4a28c"/><path d="M118.83,88.27s-8.17-9.32-11.32-4,7,9.15,7,9.15Z" fill="#f4a28c"/><rect x="98.81" y="158.79" width="197.12" height="14.28" fill="#e6e6e6"/><rect x="104.77" y="173.07" width="185.22" height="84.22" fill="#e6e6e6"/><polygon points="171.28 247.31 171.28 183.06 225.96 215.18 171.28 247.31" fill="#ffd200"/><path d="M290,173.07v24.08c-85.64-2.72-148.26,23.84-185.21,46.06V173.07Z" opacity="0.08"/><polygon points="109.78 158.77 106.37 139.49 130.56 139.49 132.66 155.93 143.75 156.08 143.75 158.77 109.78 158.77" fill="#24285b"/><rect x="335.62" y="79.74" width="5.19" height="162.11" fill="#e6e6e6"/><rect x="322.9" y="213.06" width="5.19" height="47.98" transform="translate(183.76 -139.85) rotate(33.33)" fill="#e6e6e6"/><rect x="348.34" y="213.06" width="5.19" height="47.98" transform="translate(774.4 242.33) rotate(146.67)" fill="#e6e6e6"/><rect x="333.65" y="75.18" width="9.12" height="9.12" fill="#b3b3b3"/><rect x="327.22" y="64.17" width="21.73" height="14.85" rx="3.03" fill="#e6e6e6"/><path d="M294,41.77c16-3.9,32.71,8.06,37.25,26.72s-4.79,36.93-20.83,40.83Z" fill="#b3b3b3"/><circle cx="67.33" cy="112.11" r="6.98" fill="#b3b3b3"/><rect x="59.7" y="124.03" width="3.47" height="28.78" transform="translate(122.88 276.84) rotate(-180)" fill="#e6e6e6"/><path d="M52.5,107.15h4.91l1.06-4.24h5.94l1.06,4.24h4.91a1.52,1.52,0,0,1,1.51,1.51v9.4a1.51,1.51,0,0,1-1.51,1.51H52.5A1.51,1.51,0,0,1,51,118.06v-9.4A1.52,1.52,0,0,1,52.5,107.15Z" fill="#e6e6e6"/><rect x="53.49" y="109.55" width="11.69" height="6.58" transform="translate(118.68 225.68) rotate(-180)" fill="#ffd200"/><rect x="57.62" y="119.57" width="7.63" height="5.14" transform="translate(122.88 244.28) rotate(-180)" fill="#b3b3b3"/><rect x="59.32" y="154.05" width="4.24" height="104.91" transform="translate(122.88 413.02) rotate(-180)" fill="#e6e6e6"/><rect x="74.08" y="153.35" width="4.24" height="104.91" transform="translate(193.46 391.31) rotate(168.02)" fill="#e6e6e6"/><rect x="44.56" y="153.35" width="4.24" height="104.91" transform="translate(43.75 -5.21) rotate(11.98)" fill="#e6e6e6"/><rect x="55.45" y="152.3" width="11.98" height="3.51" transform="translate(122.88 308.11) rotate(-180)" fill="#b3b3b3"/><path d="M277,148.7s-8-2.18-9.69-9.59c0,0,12.34-2.49,12.69,10.24Z" fill="#68e1fd" opacity="0.58" class="target-color"/><path d="M277.93,147.91s-5.56-8.79-.67-17c0,0,9.38,6,5.22,17Z" fill="#68e1fd" opacity="0.73" class="target-color"/><path d="M279.36,147.92s2.94-9.29,11.83-11c0,0,1.66,6-5.76,11.07Z" fill="#68e1fd" class="target-color"/><polygon points="273.59 147.71 275.2 158.75 285.37 158.79 286.87 147.76 273.59 147.71" fill="#24285b"/></svg>