<?xml version="1.0" encoding="UTF-8"?>
<svg id="a" data-name="icedeer-font" xmlns="http://www.w3.org/2000/svg" width="166.27" height="30" viewBox="0 0 166.27 30">
  <defs>
    <style>
      .b {
        fill: #333;
      }
    </style>
  </defs>
  <path class="b" d="M11.75,27.11c0,.92,.03,1.82,.09,2.71H2.91c-.13-.89-.2-1.79-.2-2.71,0-3.46,.97-6.69,2.66-9.43,1.86,1.8,4.14,3.26,6.69,4.29-.2,1.64-.31,3.36-.31,5.15Z"/>
  <path class="b" d="M38.86,27.11c0,.92-.07,1.83-.2,2.71h-8.92c.06-.89,.09-1.79,.09-2.71,0-1.78-.11-3.51-.31-5.15,2.55-1.02,4.83-2.49,6.69-4.29,1.69,2.75,2.66,5.98,2.66,9.43Z"/>
  <path class="b" d="M27.11,27.11c0,.92-.03,1.83-.08,2.71H14.54c-.06-.88-.08-1.79-.08-2.71,0-1.48,.07-2.91,.21-4.27,1.93,.52,3.99,.8,6.12,.8s4.19-.28,6.12-.8c.14,1.37,.21,2.8,.21,4.27Z"/>
  <path class="b" d="M41.32,2.71c-.1-.55-.23-1.09-.39-1.63,0-.02,0-.04-.01-.06-.01-.05-.03-.1-.05-.15,0-.02-.01-.03-.02-.05-.21-.49-.69-.83-1.25-.83-.75,0-1.36,.61-1.36,1.36,0,.12,.02,.24,.05,.35,0,.02,.01,.05,.02,.07,.09,.31,.17,.62,.24,.93,.21,.92,.31,1.87,.31,2.85,0,1.48-.25,2.91-.7,4.26-.56-1.37-1.44-2.81-2.62-4.26-.53-.65-1.11-1.29-1.75-1.93-.17-.18-.35-.35-.53-.52t0,0s-.02-.02-.04-.04c0,0,0,0,0,0-.02-.02-.04-.04-.07-.06-.22-.18-.5-.29-.81-.29-.7,0-1.28,.57-1.28,1.28,0,.34,.14,.65,.35,.88,0,0,0,0,0,0,.02,.02,.05,.05,.07,.07,.01,.01,.02,.02,.03,.03,.2,.2,.39,.39,.58,.58,.63,.65,1.19,1.3,1.68,1.93,2.2,2.84,2.92,5.46,1.64,7.08-.04,.04-.07,.09-.11,.13-.23,.26-.47,.51-.71,.76h0c.51,.6,.97,1.23,1.39,1.89,.06,.1,.13,.2,.18,.3h.06c.52-.5,1-1.02,1.45-1.57,.04-.05,.09-.1,.12-.15,0,0,.01-.02,.02-.03,2.36-2.93,3.74-6.49,3.74-10.34,0-.97-.09-1.92-.26-2.85Zm-1.72,0s-.03,0-.05,0h.09s-.03,0-.05,0Z"/>
  <path class="b" d="M16.7,9.5c-.31,.34-.61,.72-.89,1.14-.44,.64-.86,1.37-1.24,2.16-.44,.92-.84,1.93-1.19,3.03-.19,.58-.36,1.19-.52,1.81-.04,.17-.08,.34-.12,.51-.08,.35-.16,.7-.23,1.06-.63-.28-1.24-.58-1.83-.92-.36-.21-.71-.43-1.05-.65-.97-.65-1.86-1.38-2.65-2.18h0s.06-.08,.09-.11c1.43-1.67,3.17-3.08,5.12-4.14,.86-.47,1.76-.86,2.7-1.19,.59-.21,1.2-.38,1.82-.52Z"/>
  <path class="b" d="M34.6,15.46h0c-.79,.8-1.68,1.53-2.65,2.18-.34,.23-.69,.44-1.05,.65-.59,.34-1.19,.64-1.83,.92-.07-.36-.15-.71-.23-1.06-.04-.17-.08-.34-.12-.51-.16-.63-.33-1.23-.52-1.81-.35-1.1-.75-2.11-1.19-3.03-.38-.8-.8-1.52-1.24-2.16-.28-.42-.58-.79-.89-1.14,.62,.14,1.23,.32,1.82,.52,.94,.32,1.84,.72,2.7,1.19,1.95,1.06,3.68,2.46,5.12,4.14,.03,.04,.06,.07,.09,.11Z"/>
  <path class="b" d="M9.24,2.71c-.31,0-.59,.11-.81,.29-.01,.01-.03,.02-.04,.04-.01,.01-.02,.02-.04,.03-.01,.01-.02,.02-.04,.04h0c-.18,.17-.36,.34-.53,.52-.64,.64-1.22,1.29-1.75,1.93-1.18,1.45-2.07,2.89-2.62,4.26-.46-1.35-.7-2.78-.7-4.26,0-.97,.11-1.93,.31-2.85,.07-.31,.15-.62,.24-.93,0-.02,.01-.05,.02-.07,.03-.11,.05-.23,.05-.35,0-.75-.61-1.36-1.36-1.36C1.41,0,.93,.34,.72,.83c0,.02-.01,.03-.02,.05-.02,.05-.03,.1-.05,.15,0,.02-.01,.04-.01,.06-.16,.53-.29,1.08-.39,1.63-.17,.93-.26,1.88-.26,2.85,0,3.85,1.38,7.41,3.74,10.34,0,0,.01,.02,.02,.03,.04,.05,.08,.1,.12,.15,.45,.55,.93,1.07,1.45,1.57h.06c.06-.1,.12-.2,.18-.3,.42-.66,.89-1.29,1.39-1.88h0c-.25-.25-.48-.5-.71-.76-.04-.04-.07-.08-.11-.13-1.29-1.62-.56-4.24,1.64-7.08,.49-.64,1.05-1.28,1.68-1.93,.19-.19,.38-.39,.58-.58,.01,0,.02-.02,.04-.03,0,0,.01,0,.01-.01,.02-.02,.04-.04,.06-.06h0c.22-.23,.35-.54,.35-.89,0-.71-.57-1.28-1.28-1.28Zm-7.26,0s-.03,0-.05,0h.09s-.03,0-.05,0Z"/>
  <path class="b" d="M26.54,20.13c-1.81,.52-3.74,.79-5.76,.79s-3.95-.28-5.76-.79c.15-.87,.32-1.7,.53-2.47,.01,0,.03,0,.05-.01h-.04c.23-.92,.5-1.78,.8-2.55,.14-.35,.27-.69,.42-1.01,.38-.83,.8-1.54,1.24-2.12,.83-1.08,1.77-1.68,2.76-1.68s1.92,.6,2.76,1.68c.45,.58,.86,1.29,1.24,2.12,.15,.32,.29,.65,.42,1.01,.3,.78,.57,1.63,.8,2.55h-.04s.03,0,.05,.01c.2,.78,.38,1.61,.53,2.47Z"/>
  <path class="b" d="M48.06,8.98h0c.96,0,1.74,.78,1.74,1.74V29.83h-3.47V10.72c0-.96,.78-1.74,1.74-1.74Z"/>
  <circle class="b" cx="48.06" cy="4.99" r="2.26"/>
  <path class="b" d="M67.21,24.31l2.45,2.46c-1.88,1.88-4.49,3.05-7.36,3.05-5.76,0-10.42-4.66-10.42-10.42s4.66-10.42,10.42-10.42c2.88,0,5.48,1.17,7.36,3.06l-2.45,2.45c-1.26-1.26-2.99-2.04-4.91-2.04-3.84,0-6.95,3.11-6.95,6.95s3.11,6.95,6.95,6.95c1.92,0,3.65-.78,4.91-2.04Z"/>
  <path class="b" d="M166.27,10.9h0c0,.83-.58,1.53-1.39,1.7-3.17,.65-5.56,3.45-5.56,6.81v10.42h-3.47v-10.42c0-5.06,3.61-9.28,8.39-10.22,1.06-.21,2.03,.64,2.03,1.72Z"/>
  <path class="b" d="M85.3,22.93l2.92,1.68c-1.89,3.27-5.51,5.42-9.61,5.19-5.27-.29-9.58-4.64-9.82-9.92-.27-5.97,4.49-10.91,10.41-10.91,2.95,0,5.62,1.23,7.51,3.21,.17,.17,.33,.35,.48,.53l1.04,1.48c.16,.28,.31,.57,.44,.87l-8.43,5.9c-.79,.55-1.87,.36-2.42-.43h0c-.55-.79-.36-1.87,.43-2.42l5.48-3.84c-1.37-1.17-3.18-1.81-5.11-1.64-4.07,.36-7.02,4.16-6.21,8.29,.61,3.11,3.36,5.46,6.53,5.58,2.78,.1,5.14-1.39,6.36-3.57Z"/>
  <path class="b" d="M129.69,22.93l2.92,1.68c-1.89,3.27-5.51,5.42-9.61,5.19-5.27-.29-9.58-4.64-9.82-9.92-.27-5.97,4.49-10.91,10.41-10.91,2.95,0,5.62,1.23,7.51,3.21,.17,.17,.33,.35,.48,.53l1.04,1.48c.16,.28,.31,.57,.44,.87l-8.43,5.9c-.79,.55-1.87,.36-2.42-.43h0c-.55-.79-.36-1.87,.43-2.42l5.48-3.84c-1.37-1.17-3.18-1.81-5.11-1.64-4.07,.36-7.02,4.16-6.21,8.29,.61,3.11,3.36,5.46,6.53,5.58,2.78,.1,5.14-1.39,6.36-3.57Z"/>
  <path class="b" d="M150.77,22.93l2.92,1.68c-1.89,3.27-5.51,5.42-9.61,5.19-5.27-.29-9.58-4.64-9.82-9.92-.27-5.97,4.49-10.91,10.41-10.91,2.95,0,5.62,1.23,7.51,3.21,.17,.17,.33,.35,.48,.53l1.04,1.48c.16,.28,.31,.57,.44,.87l-8.43,5.9c-.79,.55-1.87,.36-2.42-.43h0c-.55-.79-.36-1.87,.43-2.42l5.48-3.84c-1.37-1.17-3.18-1.81-5.11-1.64-4.07,.36-7.02,4.16-6.21,8.29,.61,3.11,3.36,5.46,6.53,5.58,2.78,.1,5.14-1.39,6.36-3.57Z"/>
  <path class="b" d="M97.32,2.91h-2.05c-2.49,0-4.52,2.02-4.52,4.52V30h6.95c7.71,0,13.91-6.43,13.54-14.2-.35-7.29-6.63-12.89-13.92-12.89Zm.05,23.62h-3.14V8.04c0-.92,.75-1.66,1.66-1.66h1.81c5.79,0,10.44,4.88,10.06,10.75-.35,5.35-5.03,9.4-10.39,9.4Z"/>
</svg>