<?xml version="1.0" encoding="UTF-8"?>
<svg xmlns="http://www.w3.org/2000/svg" width="300" height="400" xmlns:xlink="http://www.w3.org/1999/xlink" viewBox="0 0 300 400">
  <defs>
    <style>
      .e {
        fill: #fdffff;
      }

      .f {
        fill: #334155;
      }

      .g {
        fill: #94a3b8;
      }

      .h {
        fill: url(#c);
      }

      .i {
        fill: #f9fafb;
      }
    </style>
    <linearGradient id="c" data-name="未命名的渐变 5" x1="50" y1="303.69" x2="250" y2="303.69" gradientUnits="userSpaceOnUse">
      <stop offset="0" stop-color="#c7cddd"/>
      <stop offset="1" stop-color="#dde2f0"/>
    </linearGradient>
  </defs>
  <g id="a" data-name="bg">
    <rect class="i" width="300" height="400"/>
  </g>
  <g id="b" data-name="level">
    <rect class="h" x="50" y="207.51" width="200" height="192.36"/>
    <ellipse class="e" cx="150" cy="207.51" rx="100" ry="50"/>
  </g>
  <g id="d" data-name="logo">
    <path class="f" d="M157.85,148.43c10.95,2.22,20.57,.26,28.77-7.24,6.38-5.84,9.89-13.05,10.08-21.71,.4-17.81-13.77-32.41-31.18-32.08-10.15,.2-18.44,4.44-24.55,12.54-6.12,8.11-7.61,17.25-5.05,27.24-2.29-.59-4.4-1.12-6.51-1.67-1.42-.37-2.82-.78-4.25-1.1-.74-.16-.99-.51-.99-1.26,.01-2.62-.09-5.25-.03-7.87,.03-1.49-.49-2.46-1.8-3.19-2.08-1.17-4.1-2.45-6.13-3.71-2.44-1.5-2.94-3.01-1.89-5.66,1.09-2.76,2.19-5.51,3.32-8.26,.89-2.18,2.39-3,4.69-2.54,2.46,.49,4.92,.95,7.34,1.59,1.45,.38,2.47,.14,3.47-1.01,1.8-2.06,3.74-4,5.64-5.97,.79-.82,1.05-1.71,.76-2.84-.66-2.57-1.26-5.17-1.86-7.76-.55-2.36,.13-3.79,2.33-4.76,2.89-1.28,5.79-2.53,8.71-3.74,2.17-.9,3.69-.43,4.99,1.52,1.5,2.25,2.95,4.52,4.38,6.81,.55,.88,1.23,1.28,2.28,1.24,3.08-.11,6.17-.09,9.24-.29,.66-.04,1.48-.66,1.89-1.25,1.39-2.03,2.62-4.18,3.93-6.27,.41-.65,.85-1.29,1.37-1.85,.83-.88,1.92-1.28,3.06-.85,3.53,1.34,7.04,2.71,10.51,4.2,1.65,.71,2.07,2.24,1.76,3.9-.5,2.73-1.06,5.45-1.7,8.15-.27,1.16-.02,1.97,.84,2.77,2.15,1.99,4.25,4.04,6.31,6.12,.86,.87,1.75,1.1,2.92,.79,2.53-.67,5.08-1.3,7.64-1.85,2.56-.55,3.92,.18,4.98,2.59,1.18,2.68,2.34,5.37,3.45,8.08,1.05,2.56,.61,4-1.68,5.54-2.08,1.4-4.18,2.76-6.32,4.07-1.07,.65-1.57,1.46-1.52,2.73,.09,2.81,.15,5.63,.11,8.44-.01,1.25,.49,2,1.52,2.61,2.16,1.26,4.28,2.61,6.43,3.9,2.15,1.29,3,2.56,1.9,5.55-1.03,2.78-2.18,5.52-3.32,8.26-.95,2.29-2.35,3.03-4.77,2.56-2.61-.51-5.21-1.07-7.8-1.64-1.04-.23-1.88,0-2.63,.76-2.02,2.07-4.02,4.16-6.1,6.18-.89,.86-1.09,1.74-.78,2.91,.66,2.5,1.24,5.01,1.81,7.53,.6,2.63-.1,4-2.55,5.07-2.65,1.16-5.3,2.3-7.97,3.41-2.73,1.13-4.08,.72-5.71-1.71-1.44-2.15-2.85-4.31-4.25-6.48-.61-.94-1.42-1.32-2.53-1.28-2.62,.09-5.24,.17-7.86,.15-.5,0-1.32-.38-1.45-.77-1.13-3.43-2.13-6.9-3.26-10.62Z"/>
    <path class="g" d="M141.97,195.81c-.8-.37-1.5-.6-2.09-.99-1.42-.93-2.74-2.02-4.2-2.87-.58-.34-1.51-.47-2.13-.26-1.79,.59-3.5,1.4-5.25,2.12-.85,.35-1.37,.95-1.52,1.88-.28,1.67-.59,3.34-.88,5.01-.33,1.84-1.06,2.57-2.93,2.64-2.12,.08-4.24,.08-6.36,0-1.85-.06-2.62-.78-2.97-2.62-.31-1.63-.59-3.26-.85-4.9-.15-.97-.67-1.62-1.55-1.99-1.63-.69-3.24-1.46-4.92-2-.67-.21-1.64-.1-2.25,.25-1.5,.85-2.87,1.94-4.31,2.91-1.71,1.16-2.59,1.08-4.08-.37-1.38-1.34-2.76-2.7-4.11-4.07-1.49-1.5-1.58-2.51-.36-4.29,.94-1.37,1.99-2.67,2.81-4.1,.34-.59,.46-1.52,.25-2.15-.59-1.79-1.31-3.55-2.18-5.22-.34-.65-1.17-1.25-1.89-1.45-1.62-.46-3.33-.63-4.99-.97-1.95-.39-2.59-1.1-2.64-3.05-.06-2.08-.06-4.17,0-6.25,.05-1.83,.69-2.56,2.5-2.92,1.7-.34,3.41-.64,5.13-.88,1.02-.14,1.55-.72,1.9-1.62,.66-1.69,1.31-3.38,2.03-5.03,.38-.87,.33-1.6-.24-2.37-.99-1.33-1.93-2.69-2.9-4.03-1.28-1.78-1.23-2.71,.29-4.25,1.4-1.43,2.82-2.85,4.25-4.26,1.33-1.31,2.31-1.4,3.9-.31,1.37,.94,2.72,1.9,4.02,2.92,.82,.64,1.6,.77,2.56,.33,1.68-.76,3.4-1.46,5.11-2.15,.88-.35,1.33-.94,1.45-1.89,.23-1.72,.52-3.43,.85-5.13,.35-1.81,1.27-2.58,3.12-2.62,2.01-.04,4.01-.03,6.02,0,1.9,.03,2.76,.74,3.12,2.59,.33,1.7,.6,3.42,.86,5.13,.14,.89,.59,1.43,1.45,1.76,1.8,.68,3.59,1.39,5.35,2.18,.98,.44,1.75,.27,2.57-.34,1.33-.99,2.67-1.97,4.05-2.88,1.64-1.08,2.74-.98,4.12,.44,1.69,1.74,3.31,3.54,4.94,5.33,.5,.55,.52,1.16,.09,1.79-1.12,1.66-2.16,3.37-3.35,4.98-.7,.95-.84,1.81-.36,2.88,.73,1.61,1.43,3.25,2.04,4.91,.37,1.02,1.07,1.41,2.06,1.55,1.64,.24,3.28,.5,4.91,.8,1.83,.34,2.52,1.12,2.56,2.99,.04,2.16,.04,4.32-.02,6.48-.04,1.62-.72,2.38-2.32,2.69-1.74,.33-3.51,.52-5.22,.97-.69,.18-1.49,.75-1.8,1.37-.87,1.71-1.51,3.54-2.25,5.32-.34,.82-.22,1.56,.31,2.28,1,1.37,1.96,2.77,2.93,4.16,1.09,1.59,1.02,2.66-.32,4.02-1.4,1.43-2.8,2.87-4.27,4.24-.56,.52-1.31,.85-2.02,1.29Zm-22.17-51.29c-12.28,.18-21.87,9.89-21.68,21.95,.19,11.87,10.1,21.4,22.06,21.22,11.61-.18,21.35-10.14,21.17-21.67-.18-11.94-9.94-21.67-21.55-21.5Z"/>
    <path class="f" d="M144.58,118.41c.26-12.27,9.77-21.51,21.84-21.25,11.55,.25,20.79,10.1,20.52,21.87-.26,11.47-10.07,20.86-21.55,20.63-11.51-.23-21.06-9.98-20.81-21.26Z"/>
  </g>
</svg>