<?xml version="1.0" encoding="UTF-8"?>
<svg xmlns="http://www.w3.org/2000/svg" width="300" height="400" xmlns:xlink="http://www.w3.org/1999/xlink" viewBox="0 0 300 400">
  <defs>
    <style>
      .e {
        fill: #fdffff;
      }

      .f {
        fill: #334155;
      }

      .g {
        fill: url(#c);
      }

      .h {
        fill: #f9fafb;
      }
    </style>
    <linearGradient id="c" data-name="未命名的渐变 5" x1="50" y1="303.69" x2="250" y2="303.69" gradientUnits="userSpaceOnUse">
      <stop offset="0" stop-color="#c7cddd"/>
      <stop offset="1" stop-color="#dde2f0"/>
    </linearGradient>
  </defs>
  <g id="a" data-name="bg">
    <rect class="h" width="300" height="400"/>
  </g>
  <g id="b" data-name="level">
    <rect class="g" x="50" y="207.51" width="200" height="192.36"/>
    <ellipse class="e" cx="150" cy="207.51" rx="100" ry="50"/>
  </g>
  <g id="d" data-name="logo">
    <g>
      <path class="f" d="M157.27,137.43c10.14,2.05,19.05,.24,26.64-6.7,5.91-5.4,9.15-12.08,9.33-20.1,.37-16.49-12.75-30.01-28.87-29.7-9.4,.18-17.07,4.11-22.73,11.61-5.67,7.51-7.04,15.97-4.68,25.23-2.12-.54-4.08-1.04-6.03-1.54-1.31-.34-2.61-.72-3.94-1.01-.69-.15-.92-.48-.91-1.16,.01-2.43-.09-4.86-.03-7.28,.03-1.38-.46-2.28-1.66-2.95-1.93-1.08-3.8-2.27-5.68-3.43-2.26-1.39-2.72-2.79-1.75-5.24,1.01-2.55,2.03-5.1,3.07-7.65,.83-2.02,2.21-2.78,4.35-2.36,2.27,.45,4.56,.88,6.8,1.47,1.34,.35,2.28,.13,3.21-.94,1.67-1.91,3.46-3.71,5.22-5.53,.74-.76,.98-1.58,.71-2.63-.61-2.38-1.17-4.78-1.72-7.18-.51-2.19,.12-3.51,2.16-4.41,2.68-1.19,5.36-2.35,8.07-3.46,2.01-.83,3.42-.4,4.62,1.41,1.38,2.08,2.73,4.19,4.05,6.31,.51,.82,1.14,1.19,2.11,1.15,2.85-.1,5.71-.08,8.56-.26,.61-.04,1.37-.61,1.75-1.16,1.29-1.88,2.42-3.87,3.64-5.8,.38-.6,.79-1.2,1.27-1.71,.77-.82,1.78-1.19,2.83-.79,3.27,1.24,6.52,2.51,9.73,3.89,1.53,.65,1.92,2.08,1.63,3.61-.47,2.53-.98,5.05-1.57,7.54-.25,1.08-.02,1.82,.78,2.57,1.99,1.85,3.93,3.74,5.84,5.67,.8,.8,1.62,1.02,2.71,.73,2.34-.62,4.7-1.21,7.07-1.72,2.37-.51,3.63,.17,4.62,2.39,1.1,2.48,2.16,4.98,3.2,7.48,.97,2.37,.57,3.7-1.56,5.13-1.93,1.29-3.87,2.56-5.85,3.77-.99,.6-1.45,1.35-1.41,2.53,.09,2.6,.14,5.21,.11,7.82-.01,1.15,.45,1.86,1.41,2.41,2,1.17,3.96,2.41,5.95,3.61,1.99,1.19,2.78,2.37,1.76,5.14-.95,2.58-2.02,5.11-3.07,7.65-.88,2.12-2.17,2.81-4.42,2.37-2.42-.47-4.82-.99-7.23-1.52-.96-.21-1.74,0-2.43,.7-1.87,1.92-3.72,3.85-5.65,5.72-.82,.8-1.01,1.61-.72,2.7,.61,2.31,1.15,4.64,1.68,6.97,.55,2.44-.09,3.71-2.36,4.7-2.45,1.07-4.91,2.13-7.38,3.16-2.52,1.05-3.78,.67-5.29-1.58-1.33-1.99-2.64-3.99-3.93-6-.56-.87-1.32-1.22-2.34-1.19-2.43,.08-4.86,.16-7.28,.14-.47,0-1.23-.36-1.34-.71-1.05-3.18-1.98-6.39-3.01-9.83Z"/>
      <path class="f" d="M142.57,181.3c-.74-.35-1.39-.56-1.94-.92-1.31-.86-2.53-1.87-3.89-2.66-.54-.31-1.4-.43-1.98-.24-1.66,.54-3.24,1.29-4.86,1.96-.78,.32-1.27,.88-1.41,1.74-.26,1.55-.54,3.09-.82,4.64-.3,1.7-.98,2.38-2.72,2.44-1.96,.07-3.93,.07-5.89,0-1.72-.06-2.42-.73-2.75-2.43-.29-1.51-.55-3.02-.79-4.53-.14-.9-.62-1.5-1.44-1.84-1.51-.63-3-1.35-4.56-1.85-.62-.2-1.52-.09-2.08,.23-1.39,.79-2.66,1.8-3.99,2.7-1.59,1.07-2.4,1-3.78-.34-1.28-1.24-2.55-2.5-3.81-3.76-1.38-1.39-1.46-2.32-.33-3.97,.87-1.27,1.84-2.47,2.6-3.79,.31-.54,.42-1.41,.23-1.99-.55-1.65-1.21-3.29-2.02-4.83-.32-.6-1.08-1.15-1.75-1.34-1.5-.42-3.08-.59-4.62-.89-1.81-.36-2.4-1.01-2.45-2.83-.05-1.93-.05-3.86,0-5.79,.04-1.7,.64-2.37,2.31-2.7,1.58-.31,3.16-.59,4.75-.81,.95-.13,1.44-.67,1.76-1.5,.61-1.56,1.21-3.13,1.88-4.66,.35-.81,.31-1.49-.22-2.19-.92-1.23-1.79-2.49-2.68-3.74-1.19-1.65-1.14-2.51,.26-3.94,1.3-1.33,2.61-2.64,3.94-3.94,1.23-1.21,2.14-1.3,3.61-.29,1.27,.87,2.51,1.76,3.73,2.7,.76,.59,1.48,.71,2.37,.31,1.56-.71,3.14-1.36,4.73-1.99,.82-.33,1.23-.87,1.35-1.75,.21-1.59,.48-3.18,.79-4.75,.33-1.68,1.18-2.39,2.89-2.42,1.86-.03,3.72-.03,5.57,0,1.76,.03,2.56,.69,2.89,2.4,.3,1.58,.55,3.16,.8,4.75,.13,.82,.54,1.33,1.34,1.63,1.67,.63,3.33,1.29,4.95,2.02,.91,.41,1.62,.25,2.38-.31,1.23-.92,2.47-1.82,3.75-2.67,1.52-1,2.54-.91,3.81,.4,1.56,1.61,3.06,3.28,4.57,4.93,.46,.51,.48,1.07,.09,1.66-1.03,1.54-2,3.12-3.1,4.61-.65,.88-.78,1.68-.33,2.67,.68,1.49,1.32,3.01,1.89,4.55,.35,.95,.99,1.31,1.91,1.44,1.52,.22,3.03,.46,4.54,.74,1.7,.31,2.34,1.03,2.37,2.77,.04,2,.03,4-.02,6-.04,1.5-.67,2.2-2.15,2.49-1.61,.31-3.25,.48-4.84,.9-.64,.17-1.38,.7-1.67,1.27-.81,1.58-1.4,3.28-2.08,4.93-.32,.76-.2,1.44,.29,2.11,.92,1.27,1.82,2.56,2.71,3.86,1.01,1.47,.94,2.46-.29,3.72-1.3,1.33-2.59,2.66-3.95,3.93-.52,.49-1.22,.79-1.87,1.2Zm-20.52-47.49c-11.37,.17-20.25,9.16-20.07,20.33,.17,10.99,9.35,19.82,20.43,19.65,10.75-.16,19.77-9.39,19.6-20.07-.17-11.06-9.2-20.07-19.96-19.91Z"/>
      <path class="f" d="M144.98,109.63c.25-11.36,9.04-19.92,20.23-19.68,10.69,.23,19.25,9.35,19,20.25-.24,10.62-9.32,19.32-19.95,19.11-10.66-.21-19.5-9.24-19.27-19.68Z"/>
    </g>
  </g>
</svg>