<?xml version="1.0" encoding="UTF-8"?>
<svg xmlns="http://www.w3.org/2000/svg" width="300" height="400.21" viewBox="0 0 300 400.21">
  <defs>
    <style>
      .d {
        fill: #dde2f0;
      }

      .e {
        fill: #fdffff;
      }

      .f {
        fill: #6d28d9;
      }

      .g {
        fill: #c7cddd;
      }

      .h {
        fill: #f9fafb;
      }
    </style>
  </defs>
  <g id="a" data-name="bg">
    <rect class="h" width="300" height="400"/>
  </g>
  <g id="b" data-name="laptop">
    <polygon class="e" points="250.03 283.7 50.03 283.7 75.03 210.74 225.03 210.74 250.03 283.7"/>
    <polygon class="g" points="229.76 252.19 70.3 252.19 81.82 215.72 218.25 215.72 229.76 252.19"/>
    <rect class="d" x="50" y="283.7" width="200" height="116.52"/>
    <rect class="g" x="75.03" y="108.77" width="150.34" height="101.97"/>
  </g>
  <g id="c" data-name="logo">
    <path class="f" d="M200.9,72.22c-1.84-2.55-3.87-4.96-6.07-7.2-11.34-11.57-27.14-18.75-44.63-18.75s-33.29,7.18-44.63,18.75c-2.21,2.24-4.24,4.65-6.07,7.2-7.43,10.28-11.8,22.9-11.8,36.55,0,3.19,.24,6.32,.7,9.37,1.87,12.43,7.4,23.66,15.46,32.56,2.11,2.33,4.39,4.51,6.84,6.5,10.77,8.79,24.52,14.06,39.5,14.06s28.73-5.27,39.5-14.06c2.44-1.99,4.72-4.17,6.84-6.5,8.06-8.9,13.59-20.13,15.46-32.56,.46-3.06,.7-6.19,.7-9.37,0-13.65-4.38-26.27-11.8-36.55Zm-13.13-1.01c-3.26,2.47-6.78,4.62-10.5,6.41-2.08-7.21-4.87-13.51-8.18-18.51,7.08,2.69,13.43,6.85,18.68,12.11Zm-15.69,37.56h-43.75c0-6.54,.49-12.81,1.38-18.59,6.49,1.93,13.37,2.97,20.5,2.97s14.01-1.04,20.5-2.97c.89,5.79,1.38,12.05,1.38,18.59Zm-21.88-53.12c.13,0,.24,0,.37,0,7.72,.31,14.48,10.35,18.26,25.29-5.88,1.84-12.14,2.83-18.63,2.83s-12.75-.99-18.63-2.83c3.84-15.17,10.75-25.29,18.63-25.29Zm-18.89,3.46c-3.31,5.01-6.09,11.3-8.18,18.51-3.72-1.79-7.24-3.94-10.5-6.4,5.26-5.26,11.61-9.42,18.68-12.11Zm-24.71,19.31c4.4,3.37,9.21,6.24,14.32,8.51-1.28,6.8-1.97,14.16-1.97,21.84h-21.88c0-11.29,3.52-21.75,9.52-30.36Zm-8.7,39.73h21.41c.56,7.52,1.81,14.61,3.59,20.99-4.01,1.64-7.84,3.64-11.46,5.96-6.89-7.34-11.71-16.63-13.54-26.96Zm20.88,33.47c2.29-1.34,4.68-2.54,7.14-3.57,1.58,3.88,3.39,7.38,5.39,10.4-4.5-1.71-8.71-4.02-12.53-6.82Zm31.42,10.28c-6.27,0-11.94-6.42-15.92-16.7,5.08-1.34,10.42-2.05,15.92-2.05s10.84,.71,15.92,2.05c-3.99,10.28-9.65,16.7-15.92,16.7Zm0-28.12c-6.48,0-12.76,.86-18.73,2.47-1.36-5.46-2.33-11.58-2.81-18.09h43.06c-.48,6.52-1.44,12.63-2.81,18.09-5.97-1.61-12.25-2.47-18.73-2.47Zm18.88,24.67c2-3.02,3.81-6.52,5.39-10.41,2.47,1.04,4.86,2.24,7.15,3.57-3.82,2.81-8.03,5.12-12.54,6.83Zm19.87-13.34c-3.61-2.32-7.44-4.32-11.46-5.96,1.79-6.39,3.04-13.47,3.6-20.99h21.41c-1.84,10.33-6.66,19.62-13.54,26.96Zm-7.51-36.33c0-7.68-.7-15.04-1.97-21.84,5.12-2.29,9.92-5.15,14.32-8.52,6.01,8.61,9.52,19.07,9.52,30.36h-21.88Z"/>
  </g>
</svg>