<?xml version="1.0" encoding="UTF-8"?>
<svg xmlns="http://www.w3.org/2000/svg" width="300" height="400" viewBox="0 0 300 400">
  <defs>
    <style>
      .d {
        fill: #dde2f0;
      }

      .e {
        fill: #fdffff;
      }

      .f {
        fill: #ddd6fe;
      }

      .g {
        fill: #6d28d9;
      }

      .h {
        fill: #c7cddd;
      }

      .i {
        fill: #f9fafb;
      }
    </style>
  </defs>
  <g id="a" data-name="bg">
    <rect class="i" width="300" height="400"/>
  </g>
  <g id="b" data-name="laptop">
    <polygon class="e" points="250.03 263.7 50.03 263.7 75.03 190.74 225.03 190.74 250.03 263.7"/>
    <polygon class="h" points="229.76 232.19 70.3 232.19 81.82 195.72 218.25 195.72 229.76 232.19"/>
    <rect class="d" x="50" y="263.7" width="200" height="136.3"/>
    <rect class="h" x="75.03" y="88.77" width="150.34" height="101.97"/>
  </g>
  <g id="c" data-name="logo">
    <rect class="f" x="99.85" y="49.92" width="100" height="100" rx="50" ry="50"/>
    <path class="g" d="M190.55,70.72c-1.47-2.04-3.1-3.97-4.87-5.77-9.08-9.27-21.75-15.02-35.75-15.02s-26.68,5.75-35.75,15.02c-1.77,1.8-3.4,3.73-4.87,5.77-5.95,8.23-9.45,18.35-9.45,29.28,0,2.55,.19,5.06,.56,7.51,1.5,9.96,5.93,18.96,12.39,26.09,1.69,1.87,3.52,3.61,5.48,5.21,8.63,7.05,19.64,11.27,31.65,11.27s23.02-4.22,31.65-11.27c1.95-1.6,3.79-3.34,5.48-5.21,6.46-7.13,10.89-16.13,12.39-26.09,.37-2.45,.56-4.96,.56-7.51,0-10.94-3.51-21.05-9.45-29.28Zm-10.52-.81c-2.61,1.98-5.43,3.7-8.41,5.13-1.67-5.77-3.91-10.82-6.55-14.83,5.67,2.15,10.76,5.49,14.97,9.7Zm-12.57,30.09h-35.05c0-5.24,.39-10.26,1.1-14.9,5.2,1.55,10.72,2.38,16.43,2.38s11.22-.83,16.43-2.38c.71,4.64,1.1,9.65,1.1,14.9Zm-17.53-42.56c.1,0,.2,0,.3,0,6.19,.25,11.6,8.29,14.63,20.26-4.71,1.48-9.73,2.27-14.93,2.27s-10.22-.79-14.93-2.27c3.08-12.16,8.61-20.27,14.93-20.27Zm-15.14,2.77c-2.65,4.01-4.88,9.05-6.55,14.83-2.98-1.43-5.8-3.15-8.41-5.13,4.21-4.21,9.3-7.55,14.97-9.7Zm-19.8,15.47c3.53,2.7,7.38,5,11.48,6.82-1.03,5.45-1.58,11.34-1.58,17.5h-17.53c0-9.04,2.82-17.43,7.63-24.32Zm-6.97,31.83h17.15c.45,6.03,1.45,11.7,2.88,16.82-3.21,1.32-6.28,2.92-9.18,4.78-5.52-5.88-9.38-13.33-10.85-21.6Zm16.73,26.82c1.84-1.08,3.75-2.03,5.72-2.86,1.27,3.11,2.71,5.91,4.32,8.33-3.61-1.37-6.98-3.22-10.04-5.47Zm25.17,8.24c-5.03,0-9.56-5.14-12.76-13.38,4.07-1.07,8.35-1.64,12.76-1.64s8.69,.57,12.76,1.64c-3.19,8.24-7.73,13.38-12.76,13.38Zm0-22.53c-5.19,0-10.22,.69-15,1.98-1.09-4.38-1.87-9.27-2.25-14.5h34.5c-.38,5.22-1.16,10.12-2.25,14.5-4.78-1.29-9.81-1.98-15-1.98Zm15.13,19.77c1.6-2.42,3.05-5.22,4.32-8.34,1.98,.84,3.89,1.79,5.73,2.86-3.06,2.25-6.43,4.1-10.05,5.47Zm15.92-10.69c-2.89-1.86-5.96-3.46-9.18-4.78,1.44-5.12,2.43-10.79,2.88-16.82h17.15c-1.47,8.27-5.33,15.72-10.85,21.6Zm-6.01-29.11c0-6.15-.56-12.05-1.58-17.5,4.1-1.83,7.95-4.13,11.48-6.83,4.81,6.9,7.63,15.28,7.63,24.32h-17.53Z"/>
  </g>
</svg>