<?xml version="1.0" encoding="utf-8"?>
<!-- Generator: Adobe Illustrator 27.0.0, SVG Export Plug-In . SVG Version: 6.00 Build 0)  -->
<svg version="1.1" xmlns="http://www.w3.org/2000/svg" xmlns:xlink="http://www.w3.org/1999/xlink" x="0px" y="0px"
	 viewBox="0 0 300 400" style="enable-background:new 0 0 300 400;" xml:space="preserve">
<style type="text/css">
	.st0{fill:#F9FAFB;}
	.st1{fill:#C7CDDD;}
	.st2{fill:#DDE2F0;}
	.st3{fill:#FDFFFF;}
	.st4{fill:#C7CDDB;}
	.st5{fill:#16D328;}
	.st6{fill:#FFFFFF;}
</style>
<g>
	<g id="a">
		<rect class="st0" width="300" height="400"/>
	</g>
	<g id="b">
		<rect x="50" y="225.4" class="st1" width="74" height="174.6"/>
		<rect x="123.6" y="191.5" class="st2" width="126.4" height="208.5"/>
		<polygon class="st3" points="50,225.4 123.6,263.7 250,191.5 180.4,157.5 		"/>
		<polygon class="st4" points="85.5,216 138.6,243.6 229.8,191.6 179.6,167.1 		"/>
	</g>
	<g id="c">
		
			<ellipse transform="matrix(0.8946 -0.4468 0.4468 0.8946 -95.5982 67.0678)" class="st1" cx="94.4" cy="236.2" rx="6.4" ry="4.2"/>
	</g>
	<g id="d">
		<path class="st5" d="M150,50L150,50c27.6,0,50,22.4,50,50l0,0c0,27.6-22.4,50-50,50l0,0c-27.6,0-50-22.4-50-50l0,0
			C100,72.4,122.4,50,150,50z"/>
	</g>
</g>
<g>
	<path class="st6" d="M154.5,100.2c0,3.6,0,7.1,0,10.7c-0.1,8.8-7.8,16-17.2,16.1c-9.1,0.1-16.9-6.7-17.4-15.3
		c-0.4-7,6.7-15.4,13.8-15.6c1.5-0.1,3.4,1,4.5,2.1c1.3,1.5,0.2,3.3-1.1,4.5c-1.1,1-2.4,1.8-3.8,2.5c-3.1,1.6-4.8,4.3-4.3,7.1
		c0.5,2.9,3.5,5.3,6.8,5.6c5.7,0.6,10-2.4,9.7-8.8c-0.4-6.5-0.1-13.1-0.1-19.7c0-8.4,6.1-15.1,14.9-16.4c8.1-1.3,16.6,3.8,18.9,11.4
		c2.9,9.7-4.5,18-13.1,19.5c-1.9,0.3-3.6-0.4-4.5-2.1c-1-1.8-0.1-3.4,1.2-4.6c1-1,2.3-1.8,3.6-2.4c3.3-1.5,5-4.2,4.5-7.2
		c-0.5-2.8-3.3-5.3-6.5-5.6c-5.7-0.7-10.6,2.1-10,8.9C154.8,94.1,154.5,97.1,154.5,100.2z"/>
</g>
</svg>
